<?xml version="1.0" encoding="UTF-8"?>
<svg id="Layer_1" xmlns="http://www.w3.org/2000/svg" version="1.1" viewBox="0 0 576 576">
  <!-- Generator: Adobe Illustrator 29.0.0, SVG Export Plug-In . SVG Version: 2.1.0 Build 186)  -->
  <defs>
    <style>
      .st0 {
        stroke: #c6bcdd;
      }

      .st0, .st1, .st2 {
        fill: none;
      }

      .st0, .st1, .st2, .st3, .st4, .st5, .st6 {
        stroke-miterlimit: 10;
      }

      .st0, .st2 {
        stroke-width: 2px;
      }

      .st1, .st3, .st4, .st5, .st6 {
        stroke: #231f20;
      }

      .st2 {
        stroke: #f37d90;
      }

      .st3 {
        fill: #c6bcdd;
      }

      .st4 {
        fill: #fff;
      }

      .st5 {
        fill: #f37d90;
      }

      .st6 {
        fill: #e5cbbb;
      }
    </style>
  </defs>
  <path class="st1" d="M390.2,261"/>
  <g>
    <path class="st3" d="M414.5,370.5c-13.8,16.5-25.8,23-36,38l4.3-34.5c-.4,5.8-.7,9.5-.6,9.5,2,2,19.4-9,26.2-24,5-11,5.2-24.3,3-32-7.8-27.4-18.7-23.2-23-21.1l2-27.9c0,6,17.6,18.3,24,31,1.4,2.7,6.4,12.1,8,21,2,11-3,34-8,40Z"/>
    <path class="st3" d="M389.5,299.5l-6,71c1.3-16.4,4.9-58.1,6-71Z"/>
  </g>
  <path class="st3" d="M390.5,264.5c-2,88.3-6.1,168.9-38,197-4.7,4.1-31.7,18.5-69,17-48-2-64.3-12-76-42-21.3-54.4-25.6-152.6-22-174,1,2,6,10,35,20,61.2,8.1,84,7,129,0,8.2-1.3,38-12,41-18Z"/>
  <path class="st5" d="M291.2,351.2c4.3-6.5,10.4-13.1,18.1-12.9,4.8.2,9.3,3.2,11.7,7.4s2.8,9.4,1.5,14c-1.4,5.1-4.5,9.5-7.4,13.9-5.9,8.8-11.2,17.9-16,27.3-.9-3.5-3.7-6.2-6.5-8.6-6.9-5.9-14.4-10.9-20.9-17.3-6.4-6.4-11.8-14.4-12.7-23.3s3.4-18.9,11.8-22.4c5.3-2.2,11.5-1.5,16.5,1.4s8.5,7.9,10,13.4"/>
  <path class="st4" d="M390.5,263.5c1-8,0-20-11-28-6.5-4.7-9.7-6.4-17.4-8.4-7.9-2-16.4-.2-24,2.7s-14.9,6.9-22.7,9.3c-13.1,4.2-27.5,4-40.4-.6-8.7-3-16.7-7.9-25.5-10.7-13-4.1-27.6-3.1-39.7,3-12.2,6.1-25.2,21.7-24.2,31.7,30.5,41.8,195.7,27.4,205,1Z"/>
  <path class="st4" d="M358.5,226.5c1.4-8-2-18-7.3-24s-12.9-9.6-20.8-9.9c-11-.3-21.1,5.6-32,7.3-16.1,2.5-32.1-4.3-48.4-4.8-4.7-.1-9.5.3-13.8,2.2-3.7,1.6-6.9,4.2-9.6,7.2-2.7,2.9-5,6.2-6.1,10s-1.3,8.7,1,11.9c0,0,15.5-2.7,26,1,31,11,48,25,91,2,9.9-5.3,20-3,20-3h0Z"/>
  <path class="st1" d="M331.6,191.2"/>
  <path class="st1" d="M332.5,188.5"/>
  <path class="st4" d="M334.5,193.5c.7-1.3,1-2.8,1-4.2v-.8c0-8.8-10.1-14.7-18.6-16.5-3.3-.7-6.7-.5-10-.6s-6.8-.6-9.6-2.4-5.5-7.2-4.7-10.5c-1.6,5-5.4,8.5-10,11-4.7,2.6-15,6-15,6,0,0-10.2,2.6-14.6,5.6s-7.4,8.6-5.9,13.7c4.1-.1,13.9.1,26.4,3.7,7,2,23.2,2,33-1,13-4,23.9-6.3,28-4h0Z"/>
  <path class="st1" d="M219.5,260.5"/>
  <path class="st1" d="M217.8,259.7"/>
  <path class="st1" d="M217.4,259.2"/>
  <path class="st2" d="M216.5,252.5c-1,1-1,3,0,5s.6,1.3.9,1.7"/>
  <path class="st0" d="M245.8,270c1.7-.5,3.7-2.5,4.3-3.7"/>
  <path class="st2" d="M246.9,245.6c1.4.1,3.4-1.7,4.3-3.7"/>
  <path class="st2" d="M287,263.9c-.5-.4-3.4-.2-5.5.6"/>
  <path class="st0" d="M300.9,277.5c0,1.4,2,3.3,4.1,4"/>
  <path class="st0" d="M321.9,252.2c-1.4.4-2.6,2.8-2.8,5"/>
  <path class="st2" d="M347.8,269.2c1.4.2,3.5-1.4,4.6-3.4"/>
  <path class="st0" d="M354,240.9c-1.4-.2-3.5,1.6-4.4,3.7"/>
  <path class="st0" d="M332.5,211.5c-.2-.6-3-1.6-5.2-1.8"/>
  <path class="st2" d="M291.9,226.9c.5.4,3.4,0,5.4-1"/>
  <path class="st0" d="M257.2,208.3c-.6-.1-3,1.6-4.3,3.4"/>
  <path class="st2" d="M305.5,181.5c-.2-.6-3.1-3-5.3-3.4"/>
  <path class="st0" d="M265.4,187.3c.2.6,3.2,3,5.4,3.3"/>
  <path class="st6" d="M212.5,309.5"/>
</svg>