<?xml version="1.0" encoding="UTF-8"?>
<svg xmlns="http://www.w3.org/2000/svg" version="1.1" viewBox="0 0 576 576">
  <defs>
    <style>
      .cls-1, .cls-2, .cls-3, .cls-4, .cls-5, .cls-6, .cls-7 {
        stroke-miterlimit: 10;
      }

      .cls-1, .cls-2, .cls-4, .cls-5, .cls-7 {
        stroke: #231f20;
      }

      .cls-1, .cls-3, .cls-6 {
        fill: none;
      }

      .cls-2 {
        fill: #c6bcdd;
      }

      .cls-3 {
        stroke: #c6bcdd;
      }

      .cls-4 {
        fill: #f37d90;
      }

      .cls-5 {
        fill: #fff;
      }

      .cls-6 {
        stroke: #f37d90;
      }

      .cls-7 {
        fill: #e5cbbb;
      }
    </style>
  </defs>
  <!-- Generator: Adobe Illustrator 28.7.1, SVG Export Plug-In . SVG Version: 1.2.0 Build 142)  -->
  <g>
    <g id="Layer_1">
      <path class="cls-1" d="M390.21,261"/>
      <g>
        <path class="cls-2" d="M414.5,370.5c-13.79,16.55-25.75,23-36,38l4.33-34.53c-.43,5.76-.67,9.46-.58,9.53,2,2,19.43-8.99,26.25-24,5-11,5.21-24.27,3-32-7.84-27.44-18.69-23.19-23-21.13l2-27.87c0,6,17.65,18.29,24,31,1.36,2.73,6.38,12.1,8,21,2,11-3,34-8,40Z"/>
        <path class="cls-2" d="M389.5,299.5l-6,71c1.29-16.42,4.89-58.14,6-71Z"/>
      </g>
      <path class="cls-2" d="M390.5,264.5c-2.03,88.31-6.15,168.85-38,197-4.68,4.14-31.7,18.55-69,17-48-2-64.29-12-76-42-21.26-54.44-25.61-152.61-22-174,1,2,6,10,35,20,61.16,8.09,84,7,129,0,8.23-1.28,38-12,41-18Z"/>
      <path class="cls-4" d="M291.16,351.2c4.27-6.48,10.39-13.11,18.14-12.85,4.83.16,9.33,3.22,11.71,7.42s2.75,9.38,1.51,14.05c-1.35,5.08-4.45,9.48-7.36,13.86-5.85,8.78-11.19,17.91-15.98,27.31-.92-3.54-3.73-6.24-6.51-8.61-6.88-5.86-14.44-10.94-20.86-17.3-6.42-6.36-11.77-14.35-12.74-23.34s3.42-18.93,11.78-22.36c5.28-2.17,11.55-1.48,16.46,1.43s8.45,7.89,10,13.38"/>
      <path class="cls-5" d="M390.5,263.5c1-8,0-20-11-28-6.45-4.69-9.68-6.37-17.4-8.35-7.93-2.04-16.36-.23-24.02,2.66s-14.9,6.85-22.7,9.33c-13.07,4.16-27.48,3.97-40.43-.55-8.71-3.04-16.7-7.95-25.51-10.71-12.98-4.08-27.55-3.15-39.71,2.96-12.16,6.1-25.23,21.66-24.23,31.66,30.5,41.83,195.66,27.36,205,1Z"/>
      <path class="cls-5" d="M358.5,226.5c1.4-8.04-2-18-7.26-23.97s-12.94-9.63-20.84-9.85c-10.98-.31-21.15,5.62-32.01,7.32-16.08,2.53-32.13-4.33-48.39-4.77-4.7-.13-9.52.31-13.83,2.2-3.68,1.61-6.85,4.23-9.58,7.17-2.67,2.88-5,6.2-6.07,9.98s-1.33,8.74.98,11.92c0,0,15.54-2.71,26,1,31,11,48,25,91,2,9.88-5.29,20-3,20-3Z"/>
      <path class="cls-1" d="M331.57,191.24"/>
      <path class="cls-1" d="M332.5,188.5"/>
      <path class="cls-5" d="M334.5,193.5c.66-1.32,1-2.77,1-4.24,0-.39,0-.69,0-.76.03-8.75-10.07-14.7-18.64-16.5-3.28-.69-6.68-.52-10.03-.64-3.35-.12-6.82-.59-9.65-2.39-2.83-1.8-5.46-7.2-4.69-10.47-1.63,4.98-5.41,8.47-10,11-4.66,2.57-15,6-15,6,0,0-10.19,2.58-14.57,5.59-4.38,3.01-7.42,8.62-5.85,13.7,4.13-.11,13.85.11,26.43,3.7,7,2,23.16,2.03,33-1,13-4,23.86-6.26,28-4Z"/>
      <path class="cls-1" d="M219.5,260.5"/>
      <path class="cls-1" d="M217.76,259.72"/>
      <path class="cls-1" d="M217.36,259.16"/>
      <path class="cls-6" d="M216.5,252.5c-1,1-1,3,0,5,.41.82.65,1.31.86,1.66"/>
      <path class="cls-3" d="M245.82,269.96c1.68-.46,3.68-2.46,4.34-3.73"/>
      <path class="cls-6" d="M246.92,245.63c1.41.14,3.43-1.68,4.34-3.73"/>
      <path class="cls-6" d="M286.96,263.94c-.46-.44-3.37-.24-5.46.56"/>
      <path class="cls-3" d="M300.88,277.45c0,1.41,1.99,3.26,4.11,3.98"/>
      <path class="cls-3" d="M321.89,252.16c-1.37.35-2.65,2.75-2.81,4.98"/>
      <path class="cls-6" d="M347.83,269.18c1.39.25,3.55-1.41,4.62-3.37"/>
      <path class="cls-3" d="M354.02,240.9c-1.41-.16-3.46,1.63-4.4,3.66"/>
      <path class="cls-3" d="M332.5,211.53c-.23-.59-2.95-1.63-5.18-1.79"/>
      <path class="cls-6" d="M291.86,226.9c.49.4,3.38-.05,5.39-1.02"/>
      <path class="cls-3" d="M257.2,208.31c-.62-.13-2.97,1.61-4.31,3.4"/>
      <path class="cls-6" d="M305.5,181.5c-.17-.61-3.12-3.02-5.32-3.4"/>
      <path class="cls-3" d="M265.35,187.29c.18.61,3.18,2.96,5.39,3.29"/>
      <path class="cls-7" d="M212.5,309.5"/>
    </g>
  </g>
</svg>